<?xml version="1.0" encoding="UTF-8"?> <svg xmlns="http://www.w3.org/2000/svg" xmlns:xlink="http://www.w3.org/1999/xlink" id="Capa_1" data-name="Capa 1" viewBox="0 0 292.51 56.83"><defs><style>.cls-1{fill:#6d6e71;}.cls-2{fill:url(#Degradado_sin_nombre_30);}</style><linearGradient id="Degradado_sin_nombre_30" x1="405.47" y1="568.86" x2="457.8" y2="502.89" gradientUnits="userSpaceOnUse"><stop offset="0" stop-color="#76232f"></stop><stop offset="0.17" stop-color="#79252f"></stop><stop offset="0.3" stop-color="#832a30"></stop><stop offset="0.42" stop-color="#943430"></stop><stop offset="0.53" stop-color="#ab4132"></stop><stop offset="0.64" stop-color="#ca5233"></stop><stop offset="0.69" stop-color="#dc5d34"></stop></linearGradient></defs><title>Logo-Horizontal</title><path class="cls-1" d="M479.68,535.75V524.16h7.56v1.68h-5.48V529h5.16v1.69h-5.16v5Z" transform="translate(-393.82 -511.75)"></path><path class="cls-1" d="M496.53,527.53v8.22h-2v-1.32a2.69,2.69,0,0,1-1.07,1.07,3.35,3.35,0,0,1-1.6.38,3.4,3.4,0,0,1-3.19-2,5.77,5.77,0,0,1,0-4.49,3.68,3.68,0,0,1,1.3-1.53,3.55,3.55,0,0,1,3.48-.16,2.69,2.69,0,0,1,1.07,1.07v-1.24ZM494,533.58a3.07,3.07,0,0,0,.55-2,3.19,3.19,0,0,0-.55-2,1.92,1.92,0,0,0-1.58-.7,1.88,1.88,0,0,0-1.57.73,3.22,3.22,0,0,0-.56,2,3,3,0,0,0,.56,2,1.92,1.92,0,0,0,1.59.68A1.87,1.87,0,0,0,494,533.58Z" transform="translate(-393.82 -511.75)"></path><path class="cls-1" d="M500.24,535.36a3.57,3.57,0,0,1-1.45-1.48,4.76,4.76,0,0,1-.5-2.23,4.69,4.69,0,0,1,.53-2.26,3.81,3.81,0,0,1,1.5-1.53,4.49,4.49,0,0,1,2.23-.54,5.09,5.09,0,0,1,1.7.28,3.26,3.26,0,0,1,1.31.76l-.57,1.43a4,4,0,0,0-1.1-.64,3.22,3.22,0,0,0-1.16-.22,2.18,2.18,0,0,0-1.72.69,3.53,3.53,0,0,0,0,4,2.18,2.18,0,0,0,1.73.68,3.22,3.22,0,0,0,1.16-.22,4,4,0,0,0,1.1-.66l.57,1.44a3.51,3.51,0,0,1-1.35.76,5.29,5.29,0,0,1-1.74.28A4.62,4.62,0,0,1,500.24,535.36Z" transform="translate(-393.82 -511.75)"></path><path class="cls-1" d="M514.41,527.53v8.22h-2v-1.27a2.73,2.73,0,0,1-1,1,3.05,3.05,0,0,1-1.5.36q-3,0-3-3.39v-5h2v5a2,2,0,0,0,.36,1.32,1.45,1.45,0,0,0,1.14.42,1.85,1.85,0,0,0,1.43-.58,2.25,2.25,0,0,0,.53-1.57v-4.57Z" transform="translate(-393.82 -511.75)"></path><path class="cls-1" d="M516.63,535.75v-12h2v12Z" transform="translate(-393.82 -511.75)"></path><path class="cls-1" d="M523.46,529.06v3.68c0,1,.45,1.45,1.35,1.45a3.09,3.09,0,0,0,.81-.13v1.61a3.8,3.8,0,0,1-1.3.19,2.81,2.81,0,0,1-2.14-.78,3.11,3.11,0,0,1-.75-2.24v-3.78h-1.58v-1.53h1.58v-2l2-.68v2.68h2.18v1.53Z" transform="translate(-393.82 -511.75)"></path><path class="cls-1" d="M534.9,527.53v8.22h-2v-1.32a2.65,2.65,0,0,1-1.08,1.07,3.28,3.28,0,0,1-1.59.38,3.54,3.54,0,0,1-1.9-.52,3.4,3.4,0,0,1-1.29-1.48,5.65,5.65,0,0,1,0-4.49,3.73,3.73,0,0,1,1.29-1.53,3.4,3.4,0,0,1,1.89-.54,3.28,3.28,0,0,1,1.59.38,2.65,2.65,0,0,1,1.08,1.07v-1.24Zm-2.56,6.05a3.07,3.07,0,0,0,.56-2,3.18,3.18,0,0,0-.56-2,1.89,1.89,0,0,0-1.57-.7,1.87,1.87,0,0,0-1.57.73,3.16,3.16,0,0,0-.56,2,3,3,0,0,0,.56,2,1.91,1.91,0,0,0,1.58.68A1.84,1.84,0,0,0,532.34,533.58Z" transform="translate(-393.82 -511.75)"></path><path class="cls-1" d="M545,523.77v12h-2v-1.32a2.69,2.69,0,0,1-1.07,1.07,3.35,3.35,0,0,1-1.6.38,3.42,3.42,0,0,1-1.89-.54,3.58,3.58,0,0,1-1.29-1.52,5.74,5.74,0,0,1,0-4.48,3.42,3.42,0,0,1,3.19-2,3.22,3.22,0,0,1,1.57.37,2.53,2.53,0,0,1,1.07,1v-5Zm-2.56,9.81a3.09,3.09,0,0,0,.56-2,3.14,3.14,0,0,0-.55-2,2.12,2.12,0,0,0-3.15,0,3,3,0,0,0-.56,2,3.15,3.15,0,0,0,.56,2,2.1,2.1,0,0,0,3.14,0Z" transform="translate(-393.82 -511.75)"></path><path class="cls-1" d="M559.5,523.77v12h-2v-1.32a2.69,2.69,0,0,1-1.07,1.07,3.35,3.35,0,0,1-1.6.38,3.42,3.42,0,0,1-1.89-.54,3.58,3.58,0,0,1-1.29-1.52,5.74,5.74,0,0,1,0-4.48,3.42,3.42,0,0,1,3.19-2,3.22,3.22,0,0,1,1.57.37,2.53,2.53,0,0,1,1.07,1v-5Zm-2.56,9.81a3.09,3.09,0,0,0,.56-2,3.2,3.2,0,0,0-.55-2,2.12,2.12,0,0,0-3.15,0,3,3,0,0,0-.56,2,3.15,3.15,0,0,0,.56,2,2.1,2.1,0,0,0,3.14,0Z" transform="translate(-393.82 -511.75)"></path><path class="cls-1" d="M568.91,531.75h-5.67a3,3,0,0,0,.66,1.94,2.33,2.33,0,0,0,1.77.63,4.08,4.08,0,0,0,2.5-.88l.59,1.4a4.66,4.66,0,0,1-1.44.75,5.46,5.46,0,0,1-1.73.29,4.33,4.33,0,0,1-3.18-1.14,4.18,4.18,0,0,1-1.15-3.12,4.85,4.85,0,0,1,.5-2.23,3.81,3.81,0,0,1,1.42-1.53,4,4,0,0,1,2.06-.54,3.42,3.42,0,0,1,2.68,1.1,4.34,4.34,0,0,1,1,3ZM564,529.26a2.39,2.39,0,0,0-.66,1.4h3.82a2.23,2.23,0,0,0-.56-1.4,1.69,1.69,0,0,0-1.28-.48A1.85,1.85,0,0,0,564,529.26Z" transform="translate(-393.82 -511.75)"></path><path class="cls-1" d="M577.5,535.16a5,5,0,0,1-2-2.07,7,7,0,0,1-.68-3.15,6.87,6.87,0,0,1,.68-3.13,4.84,4.84,0,0,1,2-2.07,6,6,0,0,1,3-.72,6.69,6.69,0,0,1,2.21.36,4.89,4.89,0,0,1,1.71,1l-.68,1.53a5.54,5.54,0,0,0-1.56-.92,4.69,4.69,0,0,0-1.65-.28,3.22,3.22,0,0,0-2.59,1.08,4.7,4.7,0,0,0-.92,3.13,4.79,4.79,0,0,0,.91,3.15,3.19,3.19,0,0,0,2.6,1.1,4.69,4.69,0,0,0,1.65-.29,5.54,5.54,0,0,0,1.56-.92l.68,1.53a4.75,4.75,0,0,1-1.71,1,6.69,6.69,0,0,1-2.21.36A5.91,5.91,0,0,1,577.5,535.16Z" transform="translate(-393.82 -511.75)"></path><path class="cls-1" d="M586.1,523.81h2.27v2H586.1Zm.13,11.94v-8.22h2v8.22Z" transform="translate(-393.82 -511.75)"></path><path class="cls-1" d="M597.67,531.75H592a2.94,2.94,0,0,0,.66,1.94,2.29,2.29,0,0,0,1.76.63,4.1,4.1,0,0,0,2.51-.88l.59,1.4a4.66,4.66,0,0,1-1.44.75,5.47,5.47,0,0,1-1.74.29,4.32,4.32,0,0,1-3.17-1.14,4.19,4.19,0,0,1-1.16-3.12,4.73,4.73,0,0,1,.51-2.23,3.86,3.86,0,0,1,1.41-1.53,4,4,0,0,1,2.07-.54,3.43,3.43,0,0,1,2.68,1.1,4.39,4.39,0,0,1,1,3Zm-4.94-2.49a2.33,2.33,0,0,0-.65,1.4h3.82a2.29,2.29,0,0,0-.56-1.4,1.7,1.7,0,0,0-1.28-.48A1.89,1.89,0,0,0,592.73,529.26Z" transform="translate(-393.82 -511.75)"></path><path class="cls-1" d="M607,530.7v5h-2v-5a2.2,2.2,0,0,0-.37-1.42,1.43,1.43,0,0,0-1.16-.45,2,2,0,0,0-1.5.59,2.18,2.18,0,0,0-.57,1.57v4.66h-2v-5.89a20,20,0,0,0-.13-2.33h1.9l.15,1.35a2.93,2.93,0,0,1,1.14-1.15,3.33,3.33,0,0,1,1.64-.41Q607,527.32,607,530.7Z" transform="translate(-393.82 -511.75)"></path><path class="cls-1" d="M610.71,535.36a3.51,3.51,0,0,1-1.45-1.48,5.11,5.11,0,0,1,0-4.49,3.81,3.81,0,0,1,1.5-1.53,4.5,4.5,0,0,1,2.24-.54,5.18,5.18,0,0,1,1.7.28,3.41,3.41,0,0,1,1.31.76l-.57,1.43a4.15,4.15,0,0,0-1.11-.64,3.22,3.22,0,0,0-1.16-.22,2.19,2.19,0,0,0-1.72.69,3.53,3.53,0,0,0,0,4,2.2,2.2,0,0,0,1.73.68,3.22,3.22,0,0,0,1.16-.22,4.23,4.23,0,0,0,1.11-.66l.57,1.44a3.67,3.67,0,0,1-1.35.76,5.39,5.39,0,0,1-1.75.28A4.58,4.58,0,0,1,610.71,535.36Z" transform="translate(-393.82 -511.75)"></path><path class="cls-1" d="M617.26,523.81h2.26v2h-2.26Zm.13,11.94v-8.22h2v8.22Z" transform="translate(-393.82 -511.75)"></path><path class="cls-1" d="M629.5,527.53v8.22h-2v-1.32a2.65,2.65,0,0,1-1.08,1.07,3.31,3.31,0,0,1-1.59.38,3.6,3.6,0,0,1-1.91-.52,3.44,3.44,0,0,1-1.28-1.48,5.65,5.65,0,0,1,0-4.49,3.73,3.73,0,0,1,1.29-1.53,3.37,3.37,0,0,1,1.89-.54,3.31,3.31,0,0,1,1.59.38,2.65,2.65,0,0,1,1.08,1.07v-1.24Zm-2.56,6.05a3.07,3.07,0,0,0,.56-2,3.18,3.18,0,0,0-.56-2,2.09,2.09,0,0,0-3.15,0,3.22,3.22,0,0,0-.56,2,3,3,0,0,0,.56,2,1.94,1.94,0,0,0,1.59.68A1.87,1.87,0,0,0,626.94,533.58Z" transform="translate(-393.82 -511.75)"></path><path class="cls-1" d="M631.17,534.84l.57-1.44a4.89,4.89,0,0,0,3,1,2.18,2.18,0,0,0,1.13-.24.77.77,0,0,0,.4-.69.72.72,0,0,0-.27-.59,2.56,2.56,0,0,0-1-.38l-1.36-.31c-1.5-.33-2.25-1.09-2.25-2.3a2.19,2.19,0,0,1,.42-1.32,2.73,2.73,0,0,1,1.19-.9,4.44,4.44,0,0,1,1.77-.33,5.4,5.4,0,0,1,1.7.27,4.38,4.38,0,0,1,1.43.77l-.6,1.38a4.3,4.3,0,0,0-2.54-.91,2,2,0,0,0-1.09.26.84.84,0,0,0-.39.72.75.75,0,0,0,.23.57,2.05,2.05,0,0,0,.81.36l1.4.31a3.53,3.53,0,0,1,1.78.85,2.27,2.27,0,0,1-.35,3.31,4.11,4.11,0,0,1-2.49.67A5.6,5.6,0,0,1,631.17,534.84Z" transform="translate(-393.82 -511.75)"></path><path class="cls-1" d="M644.47,535.75V524.16H652v1.68h-5.48V529h5.16v1.69h-5.16v5Z" transform="translate(-393.82 -511.75)"></path><path class="cls-1" d="M653.63,535.75v-8.22h2v8.22Zm1.66-9.28H654l1.63-3.35h2.08Z" transform="translate(-393.82 -511.75)"></path><path class="cls-1" d="M657.34,534.84l.57-1.44a4.87,4.87,0,0,0,3,1,2.21,2.21,0,0,0,1.13-.24.79.79,0,0,0,.4-.69.73.73,0,0,0-.28-.59,2.5,2.5,0,0,0-.94-.38l-1.37-.31c-1.5-.33-2.25-1.09-2.25-2.3a2.13,2.13,0,0,1,.43-1.32,2.62,2.62,0,0,1,1.19-.9,4.4,4.4,0,0,1,1.77-.33,5.34,5.34,0,0,1,1.69.27,4.38,4.38,0,0,1,1.43.77l-.6,1.38a4.27,4.27,0,0,0-2.54-.91,2,2,0,0,0-1.09.26.84.84,0,0,0-.39.72.72.72,0,0,0,.24.57,1.93,1.93,0,0,0,.8.36l1.4.31a3.49,3.49,0,0,1,1.78.85,2.06,2.06,0,0,1,.57,1.5,2.12,2.12,0,0,1-.92,1.81,4.07,4.07,0,0,1-2.49.67A5.58,5.58,0,0,1,657.34,534.84Z" transform="translate(-393.82 -511.75)"></path><path class="cls-1" d="M665.9,523.81h2.26v2H665.9Zm.13,11.94v-8.22h2v8.22Z" transform="translate(-393.82 -511.75)"></path><path class="cls-1" d="M671.77,535.36a3.57,3.57,0,0,1-1.45-1.48,4.64,4.64,0,0,1-.5-2.23,4.58,4.58,0,0,1,.53-2.26,3.85,3.85,0,0,1,1.49-1.53,4.53,4.53,0,0,1,2.24-.54,5.14,5.14,0,0,1,1.7.28,3.33,3.33,0,0,1,1.31.76l-.57,1.43a4.15,4.15,0,0,0-1.11-.64,3.17,3.17,0,0,0-1.15-.22,2.22,2.22,0,0,0-1.73.69,2.92,2.92,0,0,0-.61,2,2.88,2.88,0,0,0,.61,2,2.17,2.17,0,0,0,1.73.68,3.17,3.17,0,0,0,1.15-.22,4.23,4.23,0,0,0,1.11-.66l.57,1.44a3.67,3.67,0,0,1-1.35.76,5.29,5.29,0,0,1-1.74.28A4.62,4.62,0,0,1,671.77,535.36Z" transform="translate(-393.82 -511.75)"></path><path class="cls-1" d="M680,535.36a3.64,3.64,0,0,1-1.47-1.49,5.31,5.31,0,0,1,0-4.54,3.58,3.58,0,0,1,1.47-1.49,4.47,4.47,0,0,1,2.2-.52,4.39,4.39,0,0,1,2.18.52,3.56,3.56,0,0,1,1.46,1.49,5.31,5.31,0,0,1,0,4.54,3.61,3.61,0,0,1-1.46,1.49,4.5,4.5,0,0,1-2.18.52A4.58,4.58,0,0,1,680,535.36Zm3.77-1.75a3.11,3.11,0,0,0,.55-2,3.21,3.21,0,0,0-.55-2,1.9,1.9,0,0,0-1.57-.69,1.92,1.92,0,0,0-1.58.69,3.21,3.21,0,0,0-.55,2,3.11,3.11,0,0,0,.55,2,1.88,1.88,0,0,0,1.57.67A1.9,1.9,0,0,0,683.75,533.61Z" transform="translate(-393.82 -511.75)"></path><path class="cls-1" d="M489.31,543.69H491v11.58h-1.86v-7.19L486,555.27h-1.39l-3.09-7.11v7.11h-1.85V543.69h1.66l4,9.06Z" transform="translate(-393.82 -511.75)"></path><path class="cls-1" d="M501.22,547.06v8.21h-2V554a2.63,2.63,0,0,1-1.08,1.06,3.17,3.17,0,0,1-1.59.38,3.45,3.45,0,0,1-1.9-.52,3.34,3.34,0,0,1-1.29-1.48,5.63,5.63,0,0,1,0-4.48,3.61,3.61,0,0,1,1.29-1.53,3.38,3.38,0,0,1,1.89-.55,3.18,3.18,0,0,1,1.59.39,2.63,2.63,0,0,1,1.08,1.06v-1.23Zm-2.56,6.05a3.1,3.1,0,0,0,.56-2,3.15,3.15,0,0,0-.56-2,2.09,2.09,0,0,0-3.14,0,3.2,3.2,0,0,0-.57,2,3,3,0,0,0,.57,2,1.94,1.94,0,0,0,1.58.68A1.86,1.86,0,0,0,498.66,553.11Z" transform="translate(-393.82 -511.75)"></path><path class="cls-1" d="M506,548.59v3.67c0,1,.45,1.45,1.35,1.45a2.73,2.73,0,0,0,.81-.13v1.61a3.82,3.82,0,0,1-1.3.2,2.85,2.85,0,0,1-2.15-.78,3.12,3.12,0,0,1-.75-2.25v-3.77h-1.57v-1.53H504v-2l2-.69v2.69h2.18v1.53Z" transform="translate(-393.82 -511.75)"></path><path class="cls-1" d="M516.79,551.27h-5.66a3,3,0,0,0,.66,2,2.33,2.33,0,0,0,1.76.62,4,4,0,0,0,2.51-.88l.58,1.4a4.47,4.47,0,0,1-1.44.76,5.4,5.4,0,0,1-1.73.28,4.32,4.32,0,0,1-3.17-1.14,4.17,4.17,0,0,1-1.16-3.12,4.76,4.76,0,0,1,.51-2.23,3.7,3.7,0,0,1,1.41-1.52,4,4,0,0,1,2.07-.55,3.43,3.43,0,0,1,2.68,1.1,4.41,4.41,0,0,1,1,3Zm-4.94-2.48a2.36,2.36,0,0,0-.66,1.39H515a2.37,2.37,0,0,0-.56-1.4,1.74,1.74,0,0,0-1.28-.47A1.87,1.87,0,0,0,511.85,548.79Z" transform="translate(-393.82 -511.75)"></path><path class="cls-1" d="M530.29,547.68a4,4,0,0,1,.69,2.55v5h-2v-5a2.4,2.4,0,0,0-.31-1.4,1.21,1.21,0,0,0-1-.43,1.6,1.6,0,0,0-1.33.59,2.54,2.54,0,0,0-.48,1.64v4.58h-2v-5a2.24,2.24,0,0,0-.34-1.39,1.21,1.21,0,0,0-1-.44,1.62,1.62,0,0,0-1.33.59,2.49,2.49,0,0,0-.49,1.64v4.58h-2v-5.89a18,18,0,0,0-.13-2.32h1.91l.14,1.3a2.57,2.57,0,0,1,1-1.12,3.06,3.06,0,0,1,1.55-.4,2.35,2.35,0,0,1,2.46,1.57,2.86,2.86,0,0,1,1.11-1.15,3.21,3.21,0,0,1,1.62-.42A2.5,2.5,0,0,1,530.29,547.68Z" transform="translate(-393.82 -511.75)"></path><path class="cls-1" d="M541,547.06v8.21h-2V554a2.66,2.66,0,0,1-1.07,1.06,3.24,3.24,0,0,1-1.6.38,3.47,3.47,0,0,1-1.9-.52,3.4,3.4,0,0,1-1.29-1.48,5.74,5.74,0,0,1,0-4.48,3.61,3.61,0,0,1,1.29-1.53,3.43,3.43,0,0,1,1.89-.55,3.24,3.24,0,0,1,1.6.39,2.66,2.66,0,0,1,1.07,1.06v-1.23Zm-2.55,6.05a3.16,3.16,0,0,0,.55-2,3.22,3.22,0,0,0-.55-2,1.89,1.89,0,0,0-1.58-.7,1.88,1.88,0,0,0-1.57.72,3.2,3.2,0,0,0-.56,2,3,3,0,0,0,.56,2,1.94,1.94,0,0,0,1.58.68A1.87,1.87,0,0,0,538.45,553.11Zm-.74-7.11H536.4l1.62-3.35h2.09Z" transform="translate(-393.82 -511.75)"></path><path class="cls-1" d="M545.8,548.59v3.67c0,1,.45,1.45,1.35,1.45a2.73,2.73,0,0,0,.81-.13v1.61a3.78,3.78,0,0,1-1.3.2,2.81,2.81,0,0,1-2.14-.78,3.12,3.12,0,0,1-.75-2.25v-3.77h-1.58v-1.53h1.58v-2l2-.69v2.69H548v1.53Z" transform="translate(-393.82 -511.75)"></path><path class="cls-1" d="M549.25,543.33h2.26v2h-2.26Zm.13,11.94v-8.21h2v8.21Z" transform="translate(-393.82 -511.75)"></path><path class="cls-1" d="M555.12,554.88a3.46,3.46,0,0,1-1.44-1.47,4.66,4.66,0,0,1-.51-2.24,4.71,4.71,0,0,1,.53-2.26,3.72,3.72,0,0,1,1.5-1.52,4.49,4.49,0,0,1,2.23-.55,5.36,5.36,0,0,1,1.7.28,3.28,3.28,0,0,1,1.31.77l-.56,1.43a3.9,3.9,0,0,0-1.11-.64,3.22,3.22,0,0,0-1.16-.22,2.19,2.19,0,0,0-1.72.69,3.53,3.53,0,0,0,0,4,2.22,2.22,0,0,0,1.73.68,3.24,3.24,0,0,0,1.16-.23,4.19,4.19,0,0,0,1.11-.65l.56,1.43a3.52,3.52,0,0,1-1.35.77,5.56,5.56,0,0,1-1.74.27A4.54,4.54,0,0,1,555.12,554.88Z" transform="translate(-393.82 -511.75)"></path><path class="cls-1" d="M569.67,547.06v8.21h-2V554A2.66,2.66,0,0,1,566.6,555a3.24,3.24,0,0,1-1.6.38,3.45,3.45,0,0,1-1.9-.52,3.4,3.4,0,0,1-1.29-1.48,5.74,5.74,0,0,1,0-4.48,3.61,3.61,0,0,1,1.29-1.53,3.43,3.43,0,0,1,1.89-.55,3.24,3.24,0,0,1,1.6.39,2.66,2.66,0,0,1,1.07,1.06v-1.23Zm-2.55,6.05a3.16,3.16,0,0,0,.55-2,3.22,3.22,0,0,0-.55-2,1.89,1.89,0,0,0-1.58-.7,1.86,1.86,0,0,0-1.57.72,3.2,3.2,0,0,0-.56,2,3,3,0,0,0,.56,2,1.94,1.94,0,0,0,1.58.68A1.87,1.87,0,0,0,567.12,553.11Z" transform="translate(-393.82 -511.75)"></path><path class="cls-1" d="M571.35,554.36l.57-1.43a4.91,4.91,0,0,0,3,1,2.13,2.13,0,0,0,1.13-.25.77.77,0,0,0,.4-.68.72.72,0,0,0-.28-.59,2.56,2.56,0,0,0-.94-.39l-1.37-.31c-1.5-.32-2.25-1.09-2.25-2.29a2.16,2.16,0,0,1,.43-1.33,2.8,2.8,0,0,1,1.18-.9,4.45,4.45,0,0,1,1.78-.33,5.34,5.34,0,0,1,1.69.27,4.4,4.4,0,0,1,1.43.78l-.6,1.38a4.21,4.21,0,0,0-2.54-.91,2,2,0,0,0-1.09.26.81.81,0,0,0-.39.71.72.72,0,0,0,.24.57,1.93,1.93,0,0,0,.8.36l1.4.31a3.53,3.53,0,0,1,1.78.86,2,2,0,0,1,.56,1.5,2.13,2.13,0,0,1-.91,1.81,4.14,4.14,0,0,1-2.49.66A5.52,5.52,0,0,1,571.35,554.36Z" transform="translate(-393.82 -511.75)"></path><path class="cls-1" d="M592.27,547.06l-3.82,8.77a5.09,5.09,0,0,1-1.66,2.23,6,6,0,0,1-2.49.92l-.46-1.56a5,5,0,0,0,1.74-.66,2.82,2.82,0,0,0,.93-1.18l.26-.6-3.42-7.92h2.14l2.36,5.9,2.4-5.9Z" transform="translate(-393.82 -511.75)"></path><path class="cls-1" d="M605.73,543.69h2v11.58h-1.57l-6.24-8.12v8.12h-2V543.69h1.56l6.24,8.1Z" transform="translate(-393.82 -511.75)"></path><path class="cls-1" d="M617.93,547.06v8.21h-2V554a2.63,2.63,0,0,1-1.08,1.06,3.17,3.17,0,0,1-1.59.38,3.45,3.45,0,0,1-1.9-.52,3.34,3.34,0,0,1-1.29-1.48,5.74,5.74,0,0,1,0-4.48,3.61,3.61,0,0,1,1.29-1.53,3.4,3.4,0,0,1,1.89-.55,3.18,3.18,0,0,1,1.59.39,2.63,2.63,0,0,1,1.08,1.06v-1.23Zm-2.55,6.05a3.16,3.16,0,0,0,.55-2,3.22,3.22,0,0,0-.55-2,1.89,1.89,0,0,0-1.58-.7,1.86,1.86,0,0,0-1.57.72,3.2,3.2,0,0,0-.56,2,3,3,0,0,0,.56,2,1.94,1.94,0,0,0,1.58.68A1.87,1.87,0,0,0,615.38,553.11Z" transform="translate(-393.82 -511.75)"></path><path class="cls-1" d="M622.73,548.59v3.67c0,1,.45,1.45,1.35,1.45a2.73,2.73,0,0,0,.81-.13v1.61a3.78,3.78,0,0,1-1.3.2,2.85,2.85,0,0,1-2.15-.78,3.16,3.16,0,0,1-.74-2.25v-3.77h-1.58v-1.53h1.58v-2l2-.69v2.69h2.18v1.53Z" transform="translate(-393.82 -511.75)"></path><path class="cls-1" d="M633.79,547.06v8.21h-2V554a2.69,2.69,0,0,1-1,1,3.19,3.19,0,0,1-1.5.35c-2,0-3-1.12-3-3.38v-5h2v5a2,2,0,0,0,.36,1.31,1.42,1.42,0,0,0,1.14.43,1.86,1.86,0,0,0,1.43-.59,2.25,2.25,0,0,0,.53-1.56v-4.57Z" transform="translate(-393.82 -511.75)"></path><path class="cls-1" d="M641.25,547l0,1.86a2.88,2.88,0,0,0-1.07-.22,2,2,0,0,0-1.59.61,2.29,2.29,0,0,0-.55,1.59v4.44h-2v-5.89a20,20,0,0,0-.13-2.32h1.9l.16,1.44a2.48,2.48,0,0,1,1-1.22,2.77,2.77,0,0,1,1.51-.42A2.24,2.24,0,0,1,641.25,547Z" transform="translate(-393.82 -511.75)"></path><path class="cls-1" d="M650.08,547.06v8.21h-2V554A2.66,2.66,0,0,1,647,555a3.24,3.24,0,0,1-1.6.38,3.4,3.4,0,0,1-3.19-2,5.74,5.74,0,0,1,0-4.48,3.61,3.61,0,0,1,1.29-1.53,3.43,3.43,0,0,1,1.89-.55,3.24,3.24,0,0,1,1.6.39,2.66,2.66,0,0,1,1.07,1.06v-1.23Zm-2.55,6.05a3.1,3.1,0,0,0,.55-2,3.15,3.15,0,0,0-.55-2,1.89,1.89,0,0,0-1.58-.7,1.88,1.88,0,0,0-1.57.72,3.2,3.2,0,0,0-.56,2,3,3,0,0,0,.56,2,1.94,1.94,0,0,0,1.58.68A1.87,1.87,0,0,0,647.53,553.11Z" transform="translate(-393.82 -511.75)"></path><path class="cls-1" d="M652.29,555.27v-12h2v12Z" transform="translate(-393.82 -511.75)"></path><path class="cls-1" d="M663.73,551.27h-5.66a3,3,0,0,0,.66,2,2.35,2.35,0,0,0,1.77.62A4,4,0,0,0,663,553l.59,1.4a4.47,4.47,0,0,1-1.44.76,5.46,5.46,0,0,1-1.74.28,4.32,4.32,0,0,1-3.17-1.14,4.17,4.17,0,0,1-1.15-3.12,4.76,4.76,0,0,1,.5-2.23,3.72,3.72,0,0,1,1.42-1.52,3.94,3.94,0,0,1,2.06-.55,3.43,3.43,0,0,1,2.68,1.1,4.41,4.41,0,0,1,1,3Zm-4.94-2.48a2.3,2.3,0,0,0-.65,1.39H662a2.31,2.31,0,0,0-.56-1.4,1.74,1.74,0,0,0-1.28-.47A1.89,1.89,0,0,0,658.79,548.79Z" transform="translate(-393.82 -511.75)"></path><path class="cls-1" d="M664.92,554.36l.57-1.43a4.93,4.93,0,0,0,3,1,2.1,2.1,0,0,0,1.13-.25.75.75,0,0,0,.4-.68.69.69,0,0,0-.28-.59,2.49,2.49,0,0,0-.94-.39l-1.37-.31c-1.49-.32-2.24-1.09-2.24-2.29a2.22,2.22,0,0,1,.42-1.33,2.83,2.83,0,0,1,1.19-.9,4.44,4.44,0,0,1,1.77-.33,5.29,5.29,0,0,1,1.69.27,4.45,4.45,0,0,1,1.44.78l-.61,1.38a4.21,4.21,0,0,0-2.54-.91,2,2,0,0,0-1.09.26.81.81,0,0,0-.39.71.72.72,0,0,0,.24.57,2.05,2.05,0,0,0,.81.36l1.39.31a3.57,3.57,0,0,1,1.79.86,2.06,2.06,0,0,1,.56,1.5,2.15,2.15,0,0,1-.91,1.81,4.18,4.18,0,0,1-2.49.66A5.54,5.54,0,0,1,664.92,554.36Z" transform="translate(-393.82 -511.75)"></path><path class="cls-2" d="M455.6,567.62a1,1,0,0,0-.62-.68c-6.45-2.56-13-9.63-13.1-9.7l0,0c-.81-.78-1.54-1.55-2.22-2.32.48-.32.95-.66,1.41-1a22,22,0,0,0,5.86-6.81.31.31,0,0,1,0-.1,4.83,4.83,0,0,0,1.79.34,4.9,4.9,0,0,0,.37-9.78,18.22,18.22,0,0,0-2.21-7.86,22,22,0,0,0-5.32-6.38c1.23-1.55,2.14-2.66,2.33-2.87l.06-.06c6.65-7.62,6.38-8,6-8.41-.13-.16-.42-.37-1,0a1.37,1.37,0,0,0-.42.37,83,83,0,0,1-8.85,9.63,26.75,26.75,0,0,0-6.64-3.24l-.64-.2a6.25,6.25,0,0,0,.06-.87,5.8,5.8,0,0,0-11.6-.21,29.73,29.73,0,0,0-5.66,1.14,27,27,0,0,0-5.21,2.22c-4.76-3.54-8.52-6.51-9.12-7a1.09,1.09,0,0,0-.48-.21c-.47-.08-.77,0-.91.35-.24.53.3,1,1,1.49l.25.21L408,522c-.28.19-.55.39-.82.59a22.08,22.08,0,0,0-6,6.87l-.05.09a5.9,5.9,0,0,0-1.46-.18A5.8,5.8,0,0,0,399,541h0a18.72,18.72,0,0,0,2.12,6.26,21,21,0,0,0,3.39,4.55c-3.69,3-4.57,4.13-4.74,4.4-5.08,5.32-4.81,5.95-4.63,6.37a.7.7,0,0,0,.67.42,1.05,1.05,0,0,0,.87-.46,40.78,40.78,0,0,1,9.22-9.42c.4.35.81.69,1.23,1a26.2,26.2,0,0,0,8.1,4.1,28.1,28.1,0,0,0,4.85,1,4.24,4.24,0,0,0,8.23-.08,28,28,0,0,0,4.75-1.11,26.8,26.8,0,0,0,4.86-2.13c7.65,8.14,11,10,11.17,10.08,3.72,2.08,5.12,2.55,5.75,2.55a.74.74,0,0,0,.51-.18A.71.71,0,0,0,455.6,567.62Zm-26.1-53.21a1.6,1.6,0,1,1-1.59,1.59A1.6,1.6,0,0,1,429.5,514.41Zm-13.85,5.41a27.44,27.44,0,0,1,5.35-1.18,5.8,5.8,0,0,0,11.19.87h0l.58.17a25.21,25.21,0,0,1,6.26,2.89c-2.91,2.7-5.12,4.49-5.17,4.53-5,4.25-10,3.09-11.9,1.89l-.55-.34c-.84-.52-2.79-1.74-3-1.87-2.4-1.66-4.85-3.42-7.12-5.09A25,25,0,0,1,415.65,519.82Zm-9.92,31a19.37,19.37,0,0,1-3.21-4.36,17,17,0,0,1-1.9-5.57,5.81,5.81,0,0,0,1.93-10.74,20.84,20.84,0,0,1,5.51-6.38c.34-.26.68-.51,1-.76l2.2,2a35,35,0,0,1,5.88,7.52,6.42,6.42,0,0,1,.68,4.15c-1.05,5.82-7.06,10.39-7.11,10.43C408.73,548.57,407.07,549.81,405.73,550.86Zm27,6.22a27.52,27.52,0,0,1-4.34,1A4.23,4.23,0,0,0,420,558a27.32,27.32,0,0,1-4.33-1,24.83,24.83,0,0,1-7.59-4l-.91-.73a45.37,45.37,0,0,1,4.59-2.92c12.46-6.24,21.36,1.52,22.34,2.42l.14.15q1.62,1.83,3,3.36A25.53,25.53,0,0,1,432.77,557.08Zm-.43-17s0-.06,0-.11a8.67,8.67,0,0,1,.26-3.56c.67-2.31,5.3-8.46,8.44-12.44a20.63,20.63,0,0,1,5.15,6.06,17.4,17.4,0,0,1,2.14,7.47,4.89,4.89,0,0,0-2.11,9.07l0,.07a20.8,20.8,0,0,1-5.69,6.49c-.47.36-1,.7-1.46,1C432.87,546.86,432.36,540.42,432.34,540.12Z" transform="translate(-393.82 -511.75)"></path></svg> 